<?xml version="1.0" encoding="utf-8"?>
<!-- Generated by Mocodo 4.2.12 -->
<svg width="753" height="211" viewBox="0 0 753 211" xmlns="http://www.w3.org/2000/svg">
<rect x="0" y="0" width="753" height="211" fill="#f7f7f7" stroke="none" stroke-width="0"/>

<!-- Association APPARTIENT -->
<g>
	<line x1="299" y1="68" x2="55" y2="177" stroke="#8073ac" stroke-width="2"/>
	<line x1="55" y1="68" x2="55" y2="177" stroke="#8073ac" stroke-width="2"/>
	<g>
		<path d="M87 152 a14 14 90 0 1 14 14 V177 h-92 V166 a14 14 90 0 1 14 -14" fill="#b2abd2" stroke="#b2abd2" stroke-width="0"/>
		<path d="M101 177 v11 a14 14 90 0 1 -14 14 H23 a14 14 90 0 1 -14 -14 V177 H92" fill="#d8daeb" stroke="#d8daeb" stroke-width="0"/>
		<rect x="9" y="152" width="92" height="50" fill="none" rx="14" stroke="#8073ac" stroke-width="2"/>
		<line x1="9" y1="177" x2="101" y2="177" stroke="#8073ac" stroke-width="1"/>
		<text x="17" y="169.75" fill="#000000" font-family="Verdana" font-size="12">APPARTIENT</text>
	</g>
	<text x="233" y="80.92" fill="#b35806" font-family="Verdana" font-size="12">0,N</text>
	<text x="60" y="119" fill="#b35806" font-family="Verdana" font-size="12">1,1</text>
</g>

<!-- Association FOURNIT -->
<g>
	<line x1="299" y1="68" x2="178" y2="177" stroke="#8073ac" stroke-width="2"/>
	<line x1="178" y1="68" x2="178" y2="177" stroke="#8073ac" stroke-width="2"/>
	<g>
		<path d="M199 152 a14 14 90 0 1 14 14 V177 h-70 V166 a14 14 90 0 1 14 -14" fill="#b2abd2" stroke="#b2abd2" stroke-width="0"/>
		<path d="M213 177 v11 a14 14 90 0 1 -14 14 H157 a14 14 90 0 1 -14 -14 V177 H70" fill="#d8daeb" stroke="#d8daeb" stroke-width="0"/>
		<rect x="143" y="152" width="70" height="50" fill="none" rx="14" stroke="#8073ac" stroke-width="2"/>
		<line x1="143" y1="177" x2="213" y2="177" stroke="#8073ac" stroke-width="1"/>
		<text x="150" y="169.75" fill="#000000" font-family="Verdana" font-size="12">FOURNIT</text>
	</g>
	<text x="233" y="101.68" fill="#b35806" font-family="Verdana" font-size="12">1,N</text>
	<text x="183" y="136" fill="#b35806" font-family="Verdana" font-size="12">1,N</text>
</g>

<!-- Association PASSE -->
<g>
	<line x1="405" y1="68" x2="299" y2="177" stroke="#8073ac" stroke-width="2"/>
	<line x1="528" y1="68" x2="299" y2="177" stroke="#8073ac" stroke-width="2"/>
	<g>
		<path d="M312 152 a14 14 90 0 1 14 14 V177 h-54 V166 a14 14 90 0 1 14 -14" fill="#b2abd2" stroke="#b2abd2" stroke-width="0"/>
		<path d="M326 177 v11 a14 14 90 0 1 -14 14 H286 a14 14 90 0 1 -14 -14 V177 H54" fill="#d8daeb" stroke="#d8daeb" stroke-width="0"/>
		<rect x="272" y="152" width="54" height="50" fill="none" rx="14" stroke="#8073ac" stroke-width="2"/>
		<line x1="272" y1="177" x2="326" y2="177" stroke="#8073ac" stroke-width="1"/>
		<text x="279" y="169.75" fill="#000000" font-family="Verdana" font-size="12">PASSE</text>
	</g>
	<text x="343" y="102.92" fill="#b35806" font-family="Verdana" font-size="12">1,N</text>
	<text x="445" y="90.38" fill="#b35806" font-family="Verdana" font-size="12">0,N</text>
</g>

<!-- Association CONTIENT -->
<g>
	<line x1="528" y1="68" x2="405" y2="177" stroke="#8073ac" stroke-width="2"/>
	<line x1="680" y1="68" x2="405" y2="177" stroke="#8073ac" stroke-width="2"/>
	<g>
		<path d="M430 152 a14 14 90 0 1 14 14 V177 h-78 V166 a14 14 90 0 1 14 -14" fill="#b2abd2" stroke="#b2abd2" stroke-width="0"/>
		<path d="M444 177 v11 a14 14 90 0 1 -14 14 H380 a14 14 90 0 1 -14 -14 V177 H78" fill="#d8daeb" stroke="#d8daeb" stroke-width="0"/>
		<rect x="366" y="152" width="78" height="50" fill="none" rx="14" stroke="#8073ac" stroke-width="2"/>
		<line x1="366" y1="177" x2="444" y2="177" stroke="#8073ac" stroke-width="1"/>
		<text x="373" y="169.75" fill="#000000" font-family="Verdana" font-size="12">CONTIENT</text>
	</g>
	<text x="488.16" y="119" fill="#b35806" font-family="Verdana" font-size="12">1,N</text>
	<text x="589" y="88.47" fill="#b35806" font-family="Verdana" font-size="12">0,N</text>
</g>

<!-- Association CONCERNE -->
<g>
	<line x1="680" y1="68" x2="528" y2="177" stroke="#8073ac" stroke-width="2"/>
	<line x1="299" y1="68" x2="528" y2="177" stroke="#8073ac" stroke-width="2"/>
	<g>
		<path d="M556 152 a14 14 90 0 1 14 14 V177 h-84 V166 a14 14 90 0 1 14 -14" fill="#b2abd2" stroke="#b2abd2" stroke-width="0"/>
		<path d="M570 177 v11 a14 14 90 0 1 -14 14 H500 a14 14 90 0 1 -14 -14 V177 H84" fill="#d8daeb" stroke="#d8daeb" stroke-width="0"/>
		<rect x="486" y="152" width="84" height="50" fill="none" rx="14" stroke="#8073ac" stroke-width="2"/>
		<line x1="486" y1="177" x2="570" y2="177" stroke="#8073ac" stroke-width="1"/>
		<text x="494" y="169.75" fill="#000000" font-family="Verdana" font-size="12">CONCERNE</text>
	</g>
	<text x="620.99" y="127" fill="#b35806" font-family="Verdana" font-size="12">0,N</text>
	<text x="343" y="82.29" fill="#b35806" font-family="Verdana" font-size="12">1,N</text>
</g>

<!-- Entity CATEGORIE -->
<g>
	<g>
		<rect x="14" y="34" width="82" height="25" fill="#fdb863" stroke="none" stroke-width="0" opacity="1"/>
		<rect x="14" y="59" width="82" height="43" fill="#fee0b6" stroke="none" stroke-width="0" opacity="1"/>
		<rect x="14" y="34" width="82" height="68" fill="none" stroke="#e08214" stroke-width="2" opacity="1"/>
		<line x1="14" y1="59" x2="96" y2="59" stroke="#e08214" stroke-width="1"/>
	</g>
	<text x="19" y="51.75" fill="#000000" font-family="Verdana" font-size="12">CATEGORIE</text>
	<text x="19" y="76.8" fill="#000000" font-family="Verdana" font-size="12">id</text>
	<line x1="19" y1="79" x2="31" y2="79" stroke="#000000" stroke-width="1"/>
	<text x="19" y="93.8" fill="#000000" font-family="Verdana" font-size="12">nom</text>
</g>

<!-- Entity FOURNISSEUR -->
<g>
	<g>
		<rect x="128" y="17" width="100" height="25" fill="#fdb863" stroke="none" stroke-width="0" opacity="1"/>
		<rect x="128" y="42" width="100" height="77" fill="#fee0b6" stroke="none" stroke-width="0" opacity="1"/>
		<rect x="128" y="17" width="100" height="102" fill="none" stroke="#e08214" stroke-width="2" opacity="1"/>
		<line x1="128" y1="42" x2="228" y2="42" stroke="#e08214" stroke-width="1"/>
	</g>
	<text x="133" y="34.75" fill="#000000" font-family="Verdana" font-size="12">FOURNISSEUR</text>
	<text x="133" y="59.8" fill="#000000" font-family="Verdana" font-size="12">id</text>
	<line x1="133" y1="62" x2="145" y2="62" stroke="#000000" stroke-width="1"/>
	<text x="133" y="76.8" fill="#000000" font-family="Verdana" font-size="12">nom</text>
	<text x="133" y="93.8" fill="#000000" font-family="Verdana" font-size="12">adresse</text>
	<text x="133" y="110.8" fill="#000000" font-family="Verdana" font-size="12">telephone</text>
</g>

<!-- Entity PRODUIT -->
<g>
	<g>
		<rect x="260" y="9" width="78" height="25" fill="#fdb863" stroke="none" stroke-width="0" opacity="1"/>
		<rect x="260" y="34" width="78" height="93" fill="#fee0b6" stroke="none" stroke-width="0" opacity="1"/>
		<rect x="260" y="9" width="78" height="118" fill="none" stroke="#e08214" stroke-width="2" opacity="1"/>
		<line x1="260" y1="34" x2="338" y2="34" stroke="#e08214" stroke-width="1"/>
	</g>
	<text x="271" y="26.75" fill="#000000" font-family="Verdana" font-size="12">PRODUIT</text>
	<text x="265" y="51.8" fill="#000000" font-family="Verdana" font-size="12">id</text>
	<line x1="265" y1="54" x2="277" y2="54" stroke="#000000" stroke-width="1"/>
	<text x="265" y="68.8" fill="#000000" font-family="Verdana" font-size="12">nom</text>
	<text x="265" y="85.8" fill="#000000" font-family="Verdana" font-size="12">description</text>
	<text x="265" y="102.8" fill="#000000" font-family="Verdana" font-size="12">prix</text>
	<text x="265" y="119.8" fill="#000000" font-family="Verdana" font-size="12">stock</text>
</g>

<!-- Entity CLIENT -->
<g>
	<g>
		<rect x="370" y="17" width="70" height="25" fill="#fdb863" stroke="none" stroke-width="0" opacity="1"/>
		<rect x="370" y="42" width="70" height="77" fill="#fee0b6" stroke="none" stroke-width="0" opacity="1"/>
		<rect x="370" y="17" width="70" height="102" fill="none" stroke="#e08214" stroke-width="2" opacity="1"/>
		<line x1="370" y1="42" x2="440" y2="42" stroke="#e08214" stroke-width="1"/>
	</g>
	<text x="383" y="34.75" fill="#000000" font-family="Verdana" font-size="12">CLIENT</text>
	<text x="375" y="59.8" fill="#000000" font-family="Verdana" font-size="12">id</text>
	<line x1="375" y1="62" x2="387" y2="62" stroke="#000000" stroke-width="1"/>
	<text x="375" y="76.8" fill="#000000" font-family="Verdana" font-size="12">nom</text>
	<text x="375" y="93.8" fill="#000000" font-family="Verdana" font-size="12">adresse</text>
	<text x="375" y="110.8" fill="#000000" font-family="Verdana" font-size="12">telephone</text>
</g>

<!-- Entity COMMANDE -->
<g>
	<g>
		<rect x="472" y="34" width="112" height="25" fill="#fdb863" stroke="none" stroke-width="0" opacity="1"/>
		<rect x="472" y="59" width="112" height="43" fill="#fee0b6" stroke="none" stroke-width="0" opacity="1"/>
		<rect x="472" y="34" width="112" height="68" fill="none" stroke="#e08214" stroke-width="2" opacity="1"/>
		<line x1="472" y1="59" x2="584" y2="59" stroke="#e08214" stroke-width="1"/>
	</g>
	<text x="492" y="51.75" fill="#000000" font-family="Verdana" font-size="12">COMMANDE</text>
	<text x="477" y="76.8" fill="#000000" font-family="Verdana" font-size="12">id</text>
	<line x1="477" y1="79" x2="489" y2="79" stroke="#000000" stroke-width="1"/>
	<text x="477" y="93.8" fill="#000000" font-family="Verdana" font-size="12">date_commande</text>
</g>

<!-- Entity LIGNE_COMMANDE -->
<g>
	<g>
		<rect x="616" y="26" width="128" height="25" fill="#fdb863" stroke="none" stroke-width="0" opacity="1"/>
		<rect x="616" y="51" width="128" height="59" fill="#fee0b6" stroke="none" stroke-width="0" opacity="1"/>
		<rect x="616" y="26" width="128" height="84" fill="none" stroke="#e08214" stroke-width="2" opacity="1"/>
		<line x1="616" y1="51" x2="744" y2="51" stroke="#e08214" stroke-width="1"/>
	</g>
	<text x="621" y="43.75" fill="#000000" font-family="Verdana" font-size="12">LIGNE_COMMANDE</text>
	<text x="621" y="68.8" fill="#000000" font-family="Verdana" font-size="12">id</text>
	<line x1="621" y1="71" x2="633" y2="71" stroke="#000000" stroke-width="1"/>
	<text x="621" y="85.8" fill="#000000" font-family="Verdana" font-size="12">quantite</text>
	<text x="621" y="102.8" fill="#000000" font-family="Verdana" font-size="12">prix_unitaire</text>
</g>
</svg>